<svg width="35" height="34" viewBox="0 0 35 34" fill="none" xmlns="http://www.w3.org/2000/svg">
<path d="M34.3728 16.813C34.3728 21.3318 32.5948 25.4358 29.7012 28.4568C27.4347 30.8246 24.4829 32.5282 21.1653 33.2471C20.0192 33.4953 18.8305 33.6259 17.6104 33.6259C16.6794 33.6259 15.7669 33.5499 14.8775 33.4036C11.68 32.8775 8.78637 31.4434 6.46999 29.3739C6.34438 29.2627 6.22155 29.1497 6.09963 29.0339C5.66739 28.6245 5.25731 28.1918 4.8694 27.7388C4.49811 27.3035 4.14899 26.8486 3.82296 26.3762C2.84395 24.9597 2.07644 23.3839 1.56569 21.696C1.09928 20.1508 0.848061 18.512 0.848061 16.8131C0.848061 7.52777 8.3532 0 17.6104 0C19.3034 0 20.9381 0.251957 22.4778 0.720775C24.1615 1.23125 25.7316 2.00106 27.1447 2.98396C27.6157 3.311 28.0692 3.66114 28.5024 4.03445C29.0824 4.53098 29.6273 5.06741 30.1344 5.638C32.7713 8.60894 34.3728 12.5238 34.3728 16.813Z" fill="#FAA515"/>
</svg>
